<?xml version="1.0" encoding="UTF-8"?>
<svg xmlns="http://www.w3.org/2000/svg" xmlns:xlink="http://www.w3.org/1999/xlink" version="1.1" id="Capa_1" x="0px" y="0px" viewBox="0 0 512 512" style="enable-background:new 0 0 512 512;" xml:space="preserve" width="512" height="512">
	<g opacity="0.5">
		<g>
			<path style="fill:none;stroke:#038C8C;stroke-width:15;stroke-linecap:round;stroke-linejoin:round;stroke-miterlimit:10;" d="&#10;&#9;&#9;&#9;M84,192.278h93.091c6.286-23.036,18.471-44.798,36.564-62.892c7.814-7.814,16.313-14.527,25.304-20.139V60.711H7.5v119.955&#10;&#9;&#9;&#9;c0,6.413,5.199,11.612,11.612,11.612H49"/>
			<line style="fill:none;stroke:#038C8C;stroke-width:15;stroke-linecap:round;stroke-linejoin:round;stroke-miterlimit:10;" x1="145.481" y1="145.985" x2="52.192" y2="145.985"/>
			<line style="fill:none;stroke:#038C8C;stroke-width:15;stroke-linecap:round;stroke-linejoin:round;stroke-miterlimit:10;" x1="194.267" y1="145.985" x2="174.511" y2="145.985"/>
			<line style="fill:none;stroke:#038C8C;stroke-width:15;stroke-linecap:round;stroke-linejoin:round;stroke-miterlimit:10;" x1="52.192" y1="101.825" x2="194.267" y2="101.825"/>
			<path style="fill:none;stroke:#038C8C;stroke-width:15;stroke-linecap:round;stroke-linejoin:round;stroke-miterlimit:10;" d="&#10;&#9;&#9;&#9;M238.959,60.711H7.5V26.64c0-6.413,5.199-11.612,11.612-11.612h208.234c6.413,0,11.612,5.199,11.612,11.612V60.711z"/>
		</g>
		<g>
			<line style="fill:none;stroke:#038C8C;stroke-width:15;stroke-linecap:round;stroke-linejoin:round;stroke-miterlimit:10;" x1="273.041" y1="365.746" x2="273.041" y2="411"/>
			<path style="fill:none;stroke:#038C8C;stroke-width:15;stroke-linecap:round;stroke-linejoin:round;stroke-miterlimit:10;" d="&#10;&#9;&#9;&#9;M273.041,446v39.36c0,6.413,5.199,11.612,11.612,11.612h208.234c6.413,0,11.612-5.199,11.612-11.612V364.243"/>
			<g>
				<line style="fill:none;stroke:#038C8C;stroke-width:15;stroke-linecap:round;stroke-linejoin:round;stroke-miterlimit:10;" x1="366.519" y1="450.679" x2="459.808" y2="450.679"/>
				<line style="fill:none;stroke:#038C8C;stroke-width:15;stroke-linecap:round;stroke-linejoin:round;stroke-miterlimit:10;" x1="317.733" y1="450.679" x2="337.489" y2="450.679"/>
			</g>
			<line style="fill:none;stroke:#038C8C;stroke-width:15;stroke-linecap:round;stroke-linejoin:round;stroke-miterlimit:10;" x1="317.733" y1="406.519" x2="459.808" y2="406.519"/>
			<path style="fill:none;stroke:#038C8C;stroke-width:15;stroke-linecap:round;stroke-linejoin:round;stroke-miterlimit:10;" d="&#10;&#9;&#9;&#9;M492.888,319.722h-68.949c-2.958,3.605-6.116,7.101-9.482,10.467c-16.881,16.881-36.958,28.613-58.282,35.216H504.5v-34.07&#10;&#9;&#9;&#9;C504.5,324.921,499.301,319.722,492.888,319.722z"/>
		</g>
		<g>
			<path style="fill:none;stroke:#038C8C;stroke-width:15;stroke-linecap:round;stroke-linejoin:round;stroke-miterlimit:10;" d="&#10;&#9;&#9;&#9;M185.021,388.523l44.579-44.579c-5.565-4.128-10.899-8.709-15.945-13.755c-5.046-5.046-9.627-10.381-13.755-15.945l-44.579,44.579&#10;&#9;&#9;&#9;L185.021,388.523z"/>
			<path style="fill:none;stroke:#038C8C;stroke-width:15;stroke-linecap:round;stroke-linejoin:round;stroke-miterlimit:10;" d="&#10;&#9;&#9;&#9;M138.306,355.95l-81.164,81.164c-13.694,13.694-13.694,35.895,0,49.588v0c13.694,13.694,35.895,13.694,49.588,0l81.164-81.164&#10;&#9;&#9;&#9;c3.905-3.905,3.905-10.237,0-14.142l-35.446-35.446C148.542,352.044,142.211,352.044,138.306,355.95z"/>
			<path style="fill:none;stroke:#038C8C;stroke-width:15;stroke-linecap:round;stroke-linejoin:round;stroke-miterlimit:10;" d="&#10;&#9;&#9;&#9;M401.789,189.878l-42.265,42.264c-3.658,3.658-9.911,1.067-9.911-4.105v-38.159h-38.542c-9.62,0-17.418-7.798-17.418-17.418&#10;&#9;&#9;&#9;V89.264c-29.271,4.227-57.476,17.601-79.997,40.122c-55.45,55.45-55.45,145.352,0,200.802c55.45,55.45,145.352,55.45,200.802,0&#10;&#9;&#9;&#9;c37.986-37.986,49.945-92.14,35.885-140.311H401.789z"/>
			<path style="fill:none;stroke:#038C8C;stroke-width:15;stroke-linecap:round;stroke-linejoin:round;stroke-miterlimit:10;" d="&#10;&#9;&#9;&#9;M211.384,246c3.294,20.971,13.013,41.128,29.172,57.287c40.593,40.593,106.406,40.593,146.999,0&#10;&#9;&#9;&#9;c30.661-30.66,38.156-75.707,22.5-113.409h-8.266l-42.265,42.264c-3.658,3.658-9.911,1.067-9.911-4.105v-38.159h-38.542&#10;&#9;&#9;&#9;c-9.62,0-17.418-7.798-17.418-17.418v-44.6c-19.455,3.876-38.016,13.348-53.096,28.428c-15.497,15.497-25.07,34.67-28.735,54.712"/>
		</g>
		<g>
			<path style="fill:none;stroke:#038C8C;stroke-width:15;stroke-linecap:round;stroke-linejoin:round;stroke-miterlimit:10;" d="&#10;&#9;&#9;&#9;M451.084,15.028H311.071c-9.62,0-17.418,7.798-17.418,17.418V172.46c0,9.62,7.799,17.418,17.418,17.418h38.542v38.159&#10;&#9;&#9;&#9;c0,5.173,6.254,7.763,9.911,4.105l42.265-42.264h49.296c9.62,0,17.418-7.798,17.418-17.418V32.446&#10;&#9;&#9;&#9;C468.502,22.827,460.704,15.028,451.084,15.028z"/>
			<g>
				<path style="fill:none;stroke:#038C8C;stroke-width:15;stroke-linecap:round;stroke-linejoin:round;stroke-miterlimit:10;" d="&#10;&#9;&#9;&#9;&#9;M352.998,80.348c0-16.101,13.552-29.037,29.871-28.024c13.983,0.868,25.364,12.249,26.232,26.232&#10;&#9;&#9;&#9;&#9;c0.77,12.406-6.52,23.212-17.134,27.682c-6.616,2.786-10.889,9.299-10.889,16.478v0.051"/>
				<line style="fill:none;stroke:#038C8C;stroke-width:15;stroke-linecap:round;stroke-linejoin:round;stroke-miterlimit:10;" x1="381.077" y1="147.858" x2="381.077" y2="152.638"/>
			</g>
		</g>
	</g>
</svg>