<svg width="16" height="16" viewBox="0 0 16 16" fill="none" xmlns="http://www.w3.org/2000/svg">
<rect width="16" height="16" rx="3" fill="#26A4FE"/>
<path d="M6.5 9.5H8M6.5 8H9.5M6.5 6.5H9.5M12.0911 9.49963H9.5V12.0909M9.34467 12.125H4.25C4.15054 12.125 4.05516 12.0855 3.98484 12.0152C3.91451 11.9448 3.875 11.8495 3.875 11.75V4.25C3.875 4.15054 3.91451 4.05516 3.98484 3.98484C4.05516 3.91451 4.15054 3.875 4.25 3.875H11.75C11.8495 3.875 11.9448 3.91451 12.0152 3.98484C12.0855 4.05516 12.125 4.15054 12.125 4.25V9.34467C12.125 9.39392 12.1153 9.44268 12.0965 9.48818C12.0776 9.53367 12.05 9.57501 12.0152 9.60984L9.60984 12.0152C9.57501 12.05 9.53367 12.0776 9.48818 12.0965C9.44268 12.1153 9.39392 12.125 9.34467 12.125Z" stroke="white" strokeLinecap="round" strokeLinejoin="round"/>
</svg>
