<svg width="16" height="16" viewBox="0 0 16 16" fill="none" xmlns="http://www.w3.org/2000/svg">
<rect width="16" height="16" rx="3" fill="#F95757"/>
<path d="M8.49993 6.8719C8.49993 6.59575 8.27607 6.3719 7.99993 6.3719C7.72379 6.3719 7.49993 6.59575 7.49993 6.8719H8.49993ZM7.49993 8.7439C7.49993 9.02004 7.72379 9.2439 7.99993 9.2439C8.27607 9.2439 8.49993 9.02004 8.49993 8.7439H7.49993ZM7.35193 3.8719L6.91922 3.62138L6.91909 3.62159L7.35193 3.8719ZM3.22993 10.9999L3.66264 11.2504L3.66277 11.2502L3.22993 10.9999ZM12.7879 10.9999L13.2206 10.7494L13.2203 10.7488L12.7879 10.9999ZM8.64793 3.8719L8.21522 4.12241L8.21557 4.12302L8.64793 3.8719ZM7.49993 6.8719V8.7439H8.49993V6.8719H7.49993ZM6.91909 3.62159L2.79709 10.7496L3.66277 11.2502L7.78477 4.1222L6.91909 3.62159ZM2.79722 10.7494C2.68779 10.9384 2.62793 11.1566 2.62793 11.3779H3.62793C3.62793 11.3351 3.64007 11.2894 3.66264 11.2504L2.79722 10.7494ZM2.62793 11.3779C2.62793 11.5991 2.68779 11.8174 2.79722 12.0064L3.66264 11.5054C3.64007 11.4664 3.62793 11.4206 3.62793 11.3779H2.62793ZM2.79722 12.0064C2.90699 12.196 3.06581 12.3548 3.25541 12.4646L3.75645 11.5992C3.71805 11.577 3.68487 11.5438 3.66264 11.5054L2.79722 12.0064ZM3.25541 12.4646C3.44443 12.574 3.66268 12.6339 3.88393 12.6339V11.6339C3.84118 11.6339 3.79543 11.6218 3.75645 11.5992L3.25541 12.4646ZM3.88393 12.6339H12.1339V11.6339H3.88393V12.6339ZM12.1339 12.6339C12.3552 12.6339 12.5734 12.574 12.7624 12.4646L12.2614 11.5992C12.2224 11.6218 12.1767 11.6339 12.1339 11.6339V12.6339ZM12.7624 12.4646C12.9521 12.3548 13.1109 12.196 13.2206 12.0064L12.3552 11.5054C12.333 11.5438 12.2998 11.577 12.2614 11.5992L12.7624 12.4646ZM13.2206 12.0064C13.3301 11.8174 13.3899 11.5991 13.3899 11.3779H12.3899C12.3899 11.4206 12.3778 11.4664 12.3552 11.5054L13.2206 12.0064ZM13.3899 11.3779C13.3899 11.1566 13.3301 10.9384 13.2206 10.7494L12.3552 11.2504C12.3778 11.2894 12.3899 11.3351 12.3899 11.3779H13.3899ZM13.2203 10.7488L9.08029 3.62078L8.21557 4.12302L12.3556 11.251L13.2203 10.7488ZM9.08064 3.62138C8.97087 3.43177 8.81205 3.27295 8.62245 3.16318L8.12141 4.02861C8.15981 4.05084 8.19299 4.08402 8.21522 4.12241L9.08064 3.62138ZM8.62245 3.16318C8.43525 3.0548 8.21723 2.9939 7.99993 2.9939V3.9939C8.03463 3.9939 8.08061 4.00499 8.12141 4.02861L8.62245 3.16318ZM7.99993 2.9939C7.78263 2.9939 7.56461 3.0548 7.37741 3.16318L7.87845 4.02861C7.91925 4.00499 7.96523 3.9939 7.99993 3.9939V2.9939ZM7.37741 3.16318C7.18781 3.27295 7.02899 3.43177 6.91922 3.62138L7.78464 4.12241C7.80687 4.08402 7.84005 4.05084 7.87845 4.02861L7.37741 3.16318ZM7.99993 11.2359C8.43807 11.2359 8.79393 10.88 8.79393 10.4419H7.79393C7.79393 10.3278 7.88579 10.2359 7.99993 10.2359V11.2359ZM8.79393 10.4419C8.79393 10.0038 8.43807 9.6479 7.99993 9.6479V10.6479C7.88579 10.6479 7.79393 10.556 7.79393 10.4419H8.79393ZM7.99993 9.6479C7.56179 9.6479 7.20593 10.0038 7.20593 10.4419H8.20593C8.20593 10.556 8.11407 10.6479 7.99993 10.6479V9.6479ZM7.20593 10.4419C7.20593 10.88 7.56179 11.2359 7.99993 11.2359V10.2359C8.11407 10.2359 8.20593 10.3278 8.20593 10.4419H7.20593Z" fill="white"/>
<circle cx="8" cy="10.5" r="0.5" fill="white"/>
</svg>
