<?xml version="1.0" encoding="UTF-8"?>
<svg id="_레이어_1" data-name="레이어 1" xmlns="http://www.w3.org/2000/svg" viewBox="0 0 380 100" width="152" height="40">
  <defs>
    <style>
      .cls-1 {
        fill: #059392;
      }
    </style>
  </defs>
  <g class="logo">
    <path class="cls-1" d="M60.52,30.99c0-1.25-.43-2.28-1.28-3.06-.84-.77-1.89-1.15-3.12-1.15h-28.42c-1.23,0-2.28.38-3.12,1.12-.85.76-1.29,1.78-1.29,3.03s.43,2.28,1.28,3.06c.84.77,1.89,1.16,3.12,1.16h9.55v33.04c0,1.25.44,2.3,1.3,3.14.86.84,1.97,1.26,3.29,1.26s2.5-.42,3.38-1.26c.89-.84,1.34-1.9,1.34-3.15v-33.04h9.55c1.23,0,2.28-.38,3.12-1.12.85-.76,1.29-1.78,1.29-3.03Z"/>
    <path class="cls-1" d="M84.95,41.88c-1.53-1.6-3.32-2.87-5.3-3.79-2-.92-4.15-1.39-6.39-1.39-2.89,0-5.67.75-8.25,2.24-2.58,1.49-4.7,3.65-6.29,6.42-1.59,2.77-2.4,6.16-2.4,10.07,0,3.36.74,6.41,2.21,9.07,1.47,2.67,3.6,4.82,6.33,6.37,2.73,1.55,5.99,2.34,9.69,2.34,2.18,0,4.32-.36,6.37-1.08,2.05-.72,3.68-1.58,4.81-2.54,1.32-1.03,1.98-2.22,1.98-3.53,0-.98-.36-1.85-1.07-2.59-1.22-1.26-3.05-1.51-5.11-.48-.48.26-1.01.58-1.59.94-.53.33-1.25.63-2.14.87-.89.24-2.12.37-3.64.37-1.61,0-3.16-.4-4.59-1.19-1.43-.78-2.61-1.95-3.52-3.47-.43-.72-.76-1.53-.99-2.41h20.5c1.14,0,2.15-.36,3.01-1.08.88-.73,1.35-1.69,1.4-2.88,0-2.36-.46-4.62-1.35-6.72-.89-2.09-2.12-3.96-3.65-5.56ZM65.35,49.91c.44-1.29,1.05-2.32,1.8-3.07s1.65-1.29,2.67-1.6c2.13-.65,4.78-.75,6.96.32,1.1.54,2.04,1.28,2.77,2.2.71.88,1.11,1.89,1.2,2.96h-15.65c.07-.28.15-.55.24-.81Z"/>
    <path class="cls-1" d="M124.46,36.7c-1.24,0-2.29.43-3.11,1.27-.6.62-.98,1.35-1.14,2.19-.17-.14-.35-.28-.53-.42-1.17-.88-2.56-1.61-4.13-2.18-1.58-.57-3.34-.86-5.23-.86-2.94,0-5.66.79-8.08,2.35-2.41,1.56-4.35,3.73-5.77,6.46-1.42,2.72-2.14,5.91-2.14,9.48s.72,6.69,2.14,9.41c1.42,2.73,3.38,4.91,5.84,6.46,2.46,1.56,5.24,2.35,8.27,2.35,1.67,0,3.25-.28,4.69-.83,1.42-.55,2.68-1.23,3.74-2.02.46-.34.87-.69,1.25-1.04.18.75.55,1.41,1.1,1.98.82.84,1.87,1.27,3.11,1.27s2.29-.43,3.11-1.27c.82-.84,1.23-1.89,1.23-3.13v-27.07c0-1.28-.42-2.35-1.24-3.17-.82-.82-1.86-1.23-3.11-1.23ZM120.44,54.99c0,1.92-.38,3.68-1.13,5.22-.75,1.53-1.8,2.76-3.12,3.64-1.32.88-2.88,1.32-4.65,1.32s-3.27-.45-4.59-1.32c-1.33-.88-2.38-2.11-3.12-3.64-.75-1.54-1.13-3.3-1.13-5.22s.38-3.74,1.13-5.29c.75-1.53,1.8-2.76,3.12-3.64,1.32-.88,2.86-1.32,4.59-1.32s3.33.45,4.65,1.32c1.33.88,2.38,2.11,3.12,3.64.75,1.55,1.13,3.32,1.13,5.29Z"/>
    <path class="cls-1" d="M183.44,38.8c-1.69-1.39-4.15-2.1-7.33-2.1-1.95,0-3.74.42-5.32,1.24-1.56.81-2.91,1.82-4,2.98-.71.75-1.31,1.48-1.79,2.18-.61-1.46-1.44-2.73-2.49-3.79-1.71-1.73-4.37-2.61-7.91-2.61-1.46,0-2.83.24-4.08.7-1.23.46-2.37,1.08-3.38,1.83-.9.67-1.69,1.39-2.35,2.15-.08-1.08-.48-2.01-1.22-2.76-.82-.84-1.87-1.27-3.11-1.27s-2.29.43-3.11,1.27c-.82.84-1.23,1.89-1.23,3.13v26.43c0,1.24.41,2.29,1.23,3.13.82.84,1.87,1.27,3.11,1.27s2.29-.43,3.11-1.27c.82-.84,1.23-1.89,1.23-3.13v-16.38c0-1.32.27-2.53.81-3.58.53-1.04,1.34-1.88,2.4-2.52,1.07-.63,2.38-.95,3.91-.95s2.73.31,3.54.92c.81.62,1.37,1.45,1.68,2.47.33,1.08.49,2.31.49,3.66v16.38c0,1.24.41,2.29,1.23,3.13.82.84,1.87,1.27,3.11,1.27s2.29-.43,3.11-1.27c.82-.84,1.23-1.89,1.23-3.13v-16.38c0-1.32.27-2.53.81-3.58.53-1.04,1.34-1.89,2.4-2.52,1.07-.63,2.38-.95,3.91-.95s2.73.31,3.54.92c.82.62,1.37,1.43,1.68,2.47.33,1.08.49,2.31.49,3.66v16.38c0,1.24.41,2.29,1.23,3.13.82.84,1.87,1.27,3.11,1.27s2.29-.43,3.11-1.27c.82-.84,1.23-1.89,1.23-3.13v-16.38c0-2.72-.31-5.23-.91-7.46-.62-2.29-1.79-4.15-3.46-5.53Z"/>
    <path class="cls-1" d="M228.2,30.99c0-1.25-.43-2.28-1.28-3.06-.84-.77-1.89-1.15-3.12-1.15h-28.42c-1.23,0-2.28.38-3.12,1.12-.85.76-1.29,1.78-1.29,3.03s.43,2.28,1.28,3.06c.84.77,1.89,1.16,3.12,1.16h9.55v33.04c0,1.25.44,2.3,1.3,3.14.86.84,1.97,1.26,3.29,1.26s2.5-.42,3.38-1.26c.89-.84,1.34-1.9,1.34-3.15v-33.04h9.55c1.23,0,2.28-.38,3.12-1.12.85-.76,1.29-1.78,1.29-3.03Z"/>
    <path class="cls-1" d="M250.95,39.04c-2.69-1.55-5.73-2.34-9.05-2.34s-6.36.79-9.05,2.34c-2.69,1.55-4.86,3.72-6.45,6.45-1.6,2.73-2.41,5.93-2.41,9.5s.81,6.77,2.41,9.5c1.59,2.73,3.77,4.89,6.46,6.42,2.69,1.53,5.73,2.31,9.05,2.31s6.36-.78,9.05-2.31c2.69-1.53,4.86-3.69,6.46-6.42s2.4-5.93,2.4-9.5-.81-6.77-2.4-9.5c-1.59-2.73-3.77-4.9-6.45-6.45ZM246.54,63.91c-1.39.84-2.95,1.27-4.64,1.27s-3.25-.43-4.64-1.27c-1.39-.85-2.51-2.04-3.34-3.56-.83-1.52-1.25-3.32-1.25-5.36s.42-3.91,1.25-5.42c.83-1.51,1.95-2.71,3.34-3.56,1.39-.84,2.95-1.27,4.64-1.27s3.25.43,4.64,1.27c1.39.85,2.51,2.04,3.34,3.56.83,1.52,1.25,3.35,1.25,5.42s-.42,3.84-1.25,5.36c-.83,1.51-1.95,2.71-3.34,3.56Z"/>
    <path class="cls-1" d="M294.06,36.7c-1.24,0-2.29.43-3.11,1.27-.6.62-.98,1.35-1.14,2.19-.17-.14-.35-.28-.53-.42-1.17-.88-2.56-1.61-4.13-2.18-1.58-.57-3.34-.86-5.23-.86-2.94,0-5.66.79-8.08,2.35-2.41,1.55-4.35,3.73-5.77,6.46-1.42,2.73-2.14,5.92-2.14,9.48s.72,6.69,2.14,9.41c1.42,2.73,3.39,4.91,5.84,6.46,2.46,1.56,5.24,2.35,8.27,2.35,1.67,0,3.25-.28,4.69-.83,1.42-.55,2.68-1.23,3.74-2.02.46-.34.87-.69,1.25-1.04.18.75.55,1.41,1.1,1.98.82.84,1.87,1.27,3.11,1.27s2.29-.43,3.11-1.27c.82-.84,1.23-1.89,1.23-3.13v-27.07c0-1.28-.42-2.35-1.23-3.17-.82-.82-1.87-1.23-3.11-1.23ZM290.04,54.99c0,1.92-.38,3.68-1.13,5.22-.75,1.53-1.8,2.76-3.12,3.64-1.32.88-2.88,1.32-4.65,1.32s-3.27-.45-4.59-1.32c-1.33-.88-2.38-2.11-3.12-3.64-.75-1.54-1.13-3.3-1.13-5.22s.38-3.74,1.13-5.29c.75-1.53,1.8-2.76,3.12-3.64,1.32-.88,2.86-1.32,4.59-1.32s3.33.45,4.65,1.32c1.33.88,2.38,2.11,3.12,3.64.75,1.55,1.13,3.32,1.13,5.29Z"/>
    <path class="cls-1" d="M327.24,54.45c-1.14-.79-2.41-1.43-3.77-1.92-1.32-.47-2.65-.88-3.94-1.23-1.22-.34-2.39-.69-3.46-1.05-1.02-.34-1.83-.78-2.42-1.3-.54-.48-.79-1.12-.79-1.96,0-.91.22-1.57.66-1.96.49-.43,1.05-.71,1.72-.84.71-.14,1.38-.21,1.98-.21,1.5,0,2.84.26,3.98.79,1.13.52,2.05,1.22,2.78,2.15.64.59,1.45.92,2.41,1,.97.07,1.85-.19,2.59-.78,1.03-.83,1.5-1.8,1.4-2.87-.09-.98-.41-1.84-.94-2.56-.93-1.2-2.11-2.18-3.49-2.92-1.36-.72-2.8-1.25-4.29-1.58-3.82-.84-7.26-.59-10.45.76-1.97.84-3.59,2.05-4.83,3.6-1.26,1.58-1.9,3.51-1.9,5.75,0,1.96.39,3.62,1.16,4.92.76,1.3,1.76,2.36,2.97,3.14,1.18.77,2.5,1.4,3.92,1.88,1.37.47,2.75.9,4.09,1.29,1.27.34,2.42.7,3.44,1.07.98.36,1.78.8,2.37,1.32.53.46.79,1.07.79,1.86,0,.96-.24,1.66-.7,2.1-.51.47-1.09.77-1.77.9-.75.15-1.43.24-2.02.28-1.96,0-3.61-.33-4.9-.97-1.31-.65-2.58-1.59-3.77-2.79-.81-.81-1.67-1.25-2.55-1.33-.87-.08-1.71.13-2.49.62-1.21.77-1.84,1.73-1.89,2.83-.05,1.05.18,1.93.67,2.62h0c1.72,2.3,3.91,3.92,6.51,4.82,2.56.89,5.16,1.34,7.72,1.34,2.06,0,4.11-.41,6.08-1.22,1.99-.82,3.67-2.04,4.99-3.63,1.35-1.62,2.04-3.6,2.04-5.89,0-1.95-.37-3.6-1.09-4.88-.72-1.28-1.67-2.33-2.84-3.14Z"/>
    <path class="cls-1" d="M353.58,64.35c-.62,0-1.19.11-1.68.33-.69.31-1.61.33-2.32.03-.31-.13-.55-.34-.73-.63-.18-.3-.28-.71-.28-1.21v-16.84h4.04c1.15,0,2.13-.38,2.91-1.13.78-.76,1.18-1.71,1.18-2.82s-.39-2.14-1.17-2.91c-.78-.78-1.76-1.17-2.91-1.17h-4.04v-3.6c0-1.24-.4-2.29-1.19-3.13-.8-.85-1.84-1.28-3.08-1.28s-2.3.43-3.14,1.27c-.84.84-1.27,1.9-1.27,3.14v3.6h-2.44c-1.15,0-2.13.38-2.91,1.13-.78.76-1.18,1.71-1.18,2.82s.39,2.14,1.17,2.91c.77.78,1.75,1.17,2.91,1.17h2.44v17.16c0,2.17.34,3.9,1.02,5.16.68,1.27,1.55,2.23,2.58,2.85,1.01.61,2.11,1,3.26,1.15,1.1.15,2.13.23,3.04.23,1.58,0,3.07-.41,4.45-1.22,1.46-.86,2.2-2,2.2-3.38,0-1.1-.29-1.99-.86-2.63-.59-.66-1.26-1-2.01-1Z"/>
  </g>
</svg>